<svg width="103" height="100" viewBox="0 0 103 100" fill="none" xmlns="http://www.w3.org/2000/svg">
    <rect x="0.778931" width="101.684" height="100" rx="5" fill="#1E85FE"/>
    <g clip-path="url(#clip0_13_46)">
        <path d="M55.6688 72.1568C58.0903 70.7773 59.7239 68.2026 59.7239 65.2581C59.7239 60.8641 56.0891 57.2893 51.6211 57.2893C47.1531 57.2893 43.5181 60.8641 43.5181 65.2581C43.5181 68.2026 45.1517 70.7773 47.5732 72.1568C44.7858 73.5953 42.8788 76.4686 42.8788 79.7734V83.9747C42.8788 84.541 43.3457 85.0001 43.9215 85.0001H59.3203C59.8963 85.0001 60.363 84.541 60.363 83.9747V79.7734C60.3631 76.4686 58.4563 73.5953 55.6688 72.1568ZM45.6034 65.2581C45.6034 61.9949 48.3029 59.3401 51.6211 59.3401C54.9391 59.3401 57.6386 61.9949 57.6386 65.2581C57.6386 68.5213 54.9391 71.176 51.6211 71.176C48.3029 71.176 45.6034 68.5212 45.6034 65.2581ZM58.2778 82.9494H44.9643V79.7734C44.9643 76.1636 47.9505 73.2269 51.6211 73.2269C55.2915 73.2269 58.2778 76.1636 58.2778 79.7734V82.9494Z" fill="white"/>
        <path d="M79.8236 72.1568C82.2451 70.7773 83.8789 68.2026 83.8789 65.2581C83.8789 60.8641 80.2439 57.2893 75.7759 57.2893C71.3079 57.2893 67.673 60.8641 67.673 65.2581C67.673 68.2026 69.3067 70.7773 71.7281 72.1568C68.9408 73.5953 67.0339 76.4686 67.0339 79.7734V83.9747C67.0339 84.541 67.5006 85.0001 68.0766 85.0001H71.6588C72.2347 85.0001 72.7014 84.541 72.7014 83.9747C72.7014 83.4085 72.2347 82.9494 71.6588 82.9494H69.1193V79.7734C69.1193 76.1636 72.1054 73.2269 75.776 73.2269C79.4466 73.2269 82.4329 76.1636 82.4329 79.7734V82.9494H76.5245C75.9485 82.9494 75.4818 83.4085 75.4818 83.9747C75.4818 84.541 75.9485 85.0001 76.5245 85.0001H83.4756C84.0515 85.0001 84.5182 84.541 84.5182 83.9747V79.7734C84.518 76.4686 82.611 73.5953 79.8236 72.1568ZM69.7582 65.2581C69.7582 61.9949 72.4577 59.3401 75.7757 59.3401C79.0939 59.3401 81.7934 61.9949 81.7934 65.2581C81.7934 68.5213 79.0939 71.1761 75.7757 71.1761C72.4577 71.176 69.7582 68.5212 69.7582 65.2581Z" fill="white"/>
        <path d="M42.8805 25.3593C43.5255 25.3593 44.0483 24.8451 44.0483 24.2108C44.0483 23.5766 43.5255 23.0624 42.8805 23.0624C42.2356 23.0624 41.7127 23.5766 41.7127 24.2108C41.7127 24.8451 42.2356 25.3593 42.8805 25.3593Z" fill="white"/>
        <path d="M39.3918 25.0241C39.8478 24.5757 39.8478 23.8486 39.3918 23.4002C38.9358 22.9518 38.1965 22.9518 37.7405 23.4002C37.2846 23.8486 37.2846 24.5757 37.7405 25.0241C38.1965 25.4725 38.9358 25.4725 39.3918 25.0241Z" fill="white"/>
        <path d="M47.1914 25.3593C47.8364 25.3593 48.3592 24.8451 48.3592 24.2108C48.3592 23.5766 47.8364 23.0624 47.1914 23.0624C46.5465 23.0624 46.0237 23.5766 46.0237 24.2108C46.0237 24.8451 46.5465 25.3593 47.1914 25.3593Z" fill="white"/>
        <path d="M69.3453 56.6582L68.5914 54.1594C68.8635 53.9449 69.1199 53.7186 69.3611 53.4825H74.3854C75.7268 53.4825 76.8183 52.4091 76.8183 51.0899V17.3926C76.8183 16.0734 75.7268 15 74.3854 15H28.8564C27.515 15 26.4236 16.0734 26.4236 17.3926V20.3715C26.4236 20.9378 26.8904 21.3969 27.4662 21.3969C28.042 21.3969 28.5089 20.9378 28.5089 20.3715V17.3926C28.5089 17.2042 28.6649 17.0508 28.8564 17.0508H36.5139C34.324 18.6732 32.9275 21.113 32.9275 23.8375C32.9275 26.3925 34.1317 28.7605 36.2574 30.4366L35.5035 32.9354C35.2674 33.7182 36.0107 34.4399 36.7997 34.2102L42.144 32.6508C42.3909 32.6669 42.6378 32.6751 42.8802 32.6751C48.3682 32.6751 52.833 28.7106 52.833 23.8375C52.833 21.113 51.4366 18.6732 49.2467 17.0508H74.3852C74.577 17.0508 74.7328 17.2042 74.7328 17.3926V51.0898C74.7328 51.2782 74.577 51.4316 74.3852 51.4316H70.9219C71.6051 50.185 71.9211 48.8308 71.9211 47.5603C71.9211 42.6872 67.4563 38.7228 61.9683 38.7228C54.6763 38.7228 49.7857 45.522 53.0222 51.4317H35.5612C35.4356 48.6584 33.8337 46.1369 31.3499 44.7974C33.5684 43.4618 34.9272 41.0937 34.9272 38.5345C34.9272 34.8488 32.1404 31.7705 28.509 31.2686V25.1567C28.509 24.5904 28.0422 24.1313 27.4664 24.1313C26.8905 24.1313 26.4237 24.5904 26.4237 25.1567V31.2702C22.8018 31.7707 20.0055 34.8367 20.0055 38.5344C20.0055 41.1825 21.4396 43.5071 23.5839 44.7974C21.0712 46.1522 19.3636 48.7783 19.3636 51.7896V65.2552V65.2578C19.3636 65.2578 19.3636 65.2596 19.3636 65.2604C19.3636 68.1031 20.9151 70.7303 23.4187 72.1565C20.6314 73.5951 18.7244 76.4683 18.7244 79.7731V83.9745C18.7244 84.5408 19.1912 84.9999 19.7671 84.9999H35.1661C35.7419 84.9999 36.2087 84.5408 36.2087 83.9745V79.7731C36.2087 76.4685 34.3019 73.5952 31.5144 72.1565C33.9759 70.7542 35.5695 68.1513 35.5695 65.2578V53.4824H54.5882C56.4107 55.2716 59.0442 56.3978 61.9688 56.3978C62.2113 56.3978 62.4583 56.3896 62.7051 56.3734L68.0493 57.9328C68.8426 58.1637 69.5802 57.4371 69.3453 56.6582ZM50.748 23.8375C50.748 27.5798 47.2187 30.6244 42.8805 30.6244C42.1292 30.6244 42.04 30.5418 41.7347 30.6312L38.0498 31.7063L38.4643 30.3323C38.5931 29.9054 38.4269 29.4454 38.0531 29.1941C36.1213 27.8954 35.0131 25.9431 35.0131 23.8375C35.0131 20.0952 38.5425 17.0508 42.8806 17.0508C47.2187 17.0508 50.748 20.0954 50.748 23.8375ZM22.0907 38.5345C22.0907 35.6195 24.5021 33.248 27.4662 33.248C30.4303 33.248 32.8418 35.6195 32.8418 38.5345C32.8418 41.4495 30.4303 43.821 27.4662 43.821C24.5021 43.821 22.0907 41.4495 22.0907 38.5345ZM34.1231 79.7732V82.9492H20.8095V79.7732C20.8095 76.1635 23.7956 73.2267 27.4662 73.2267C31.1368 73.2267 34.1231 76.1635 34.1231 79.7732ZM27.4662 71.1758C24.1633 71.1758 21.4766 68.5449 21.4498 65.3063C21.4496 65.2905 21.4485 65.2735 21.4485 65.2578C21.4485 61.9945 24.1482 59.3398 27.4661 59.3398C30.7842 59.3398 33.4838 61.9946 33.4838 65.2578C33.4839 68.4881 30.8144 71.1758 27.4662 71.1758ZM33.4839 52.457V59.9267C30.245 56.3901 24.6491 56.4363 21.4487 59.9267V51.7898C21.4487 48.5266 24.1481 45.8718 27.4662 45.8718C30.7844 45.8718 33.4839 48.5266 33.4839 51.7898V52.457ZM66.3847 54.0551L66.7993 55.4291C61.9321 54.009 63.4691 54.347 61.9684 54.347C59.2895 54.347 56.9232 53.1847 55.5035 51.4213C55.4797 51.3919 55.4555 51.3628 55.4323 51.3333C54.8055 50.5279 54.373 49.6009 54.1938 48.6027C54.1921 48.5934 54.1906 48.5841 54.189 48.5747C53.4716 44.4637 57.1726 40.7735 61.9683 40.7735C66.582 40.7735 70.2955 44.2247 69.7889 48.2962C69.7861 48.3185 69.7839 48.3408 69.7809 48.3631C69.5447 50.0986 68.5163 51.7604 66.7958 52.9169C66.4221 53.1682 66.256 53.6281 66.3847 54.0551Z" fill="white"/>
        <path d="M61.9684 46.7849C61.3235 46.7849 60.8006 47.2991 60.8006 47.9334C60.8006 48.5676 61.3235 49.0818 61.9684 49.0818C62.6133 49.0818 63.1362 48.5676 63.1362 47.9334C63.1362 47.2991 62.6133 46.7849 61.9684 46.7849Z" fill="white"/>
        <path d="M66.2793 49.0818C66.9243 49.0818 67.4471 48.5676 67.4471 47.9334C67.4471 47.2991 66.9243 46.7849 66.2793 46.7849C65.6344 46.7849 65.1115 47.2991 65.1115 47.9334C65.1115 48.5676 65.6344 49.0818 66.2793 49.0818Z" fill="white"/>
        <path d="M57.8346 49.0717C58.4712 48.9702 58.9035 48.3804 58.8004 47.7544C58.6972 47.1284 58.0975 46.7032 57.4609 46.8047C56.8244 46.9061 56.392 47.4959 56.4952 48.1219C56.5984 48.7479 57.198 49.1732 57.8346 49.0717Z" fill="white"/>
    </g>
    <defs>
        <clipPath id="clip0_13_46">
            <rect width="71.1789" height="70" fill="white" transform="translate(16.0316 15)"/>
        </clipPath>
    </defs>
</svg>
